<svg width="22" height="22" viewBox="0 0 22 22" fill="none" xmlns="http://www.w3.org/2000/svg">
<path fill-rule="evenodd" clip-rule="evenodd" d="M11 0C17.0751 0 22 4.92487 22 11C22 17.0751 17.0751 22 11 22C4.92487 22 0 17.0751 0 11C0 4.92487 4.92487 0 11 0ZM10.9951 5.87305C10.4428 5.87305 9.99512 6.32076 9.99512 6.87305V10.0049H6.85547C6.30343 10.0051 5.85553 10.4528 5.85547 11.0049C5.85547 11.557 6.30339 12.0046 6.85547 12.0049H9.99512V15.1445L10 15.2461C10.0512 15.7504 10.4773 16.1445 10.9951 16.1445C11.5128 16.1444 11.9391 15.7504 11.9902 15.2461L11.9951 15.1445V12.0049H15.127L15.2285 12C15.7329 11.9489 16.127 11.5227 16.127 11.0049C16.1269 10.4871 15.7329 10.0608 15.2285 10.0098L15.127 10.0049H11.9951V6.87305C11.9951 6.32083 11.5473 5.87316 10.9951 5.87305Z" fill="white"/>
</svg>
