<svg width="25" height="26" viewBox="0 0 25 26" fill="none" xmlns="http://www.w3.org/2000/svg">
<path d="M11.2373 0.0928449C12.0096 -0.0519479 12.8063 -0.0271946 13.5706 0.165762L13.762 0.21817C14.7127 0.50629 15.5423 1.11226 16.4098 1.73005L16.5602 1.83829L21.3431 5.24031L21.4524 5.31778L21.9629 5.6835C22.4647 6.05041 22.935 6.43159 23.313 6.91169L23.469 7.12019C23.8198 7.6129 24.0858 8.16117 24.2563 8.74145L24.3326 9.03653C24.4848 9.72673 24.4788 10.441 24.4785 11.1807V18.2616L24.4716 19.5194C24.4683 19.7145 24.4632 19.9025 24.4557 20.0823L24.4249 20.5984C24.3686 21.287 24.2416 22.0059 23.8849 22.7061C23.4289 23.6005 22.7352 24.3499 21.8842 24.872L21.5094 25.0816C20.9843 25.3491 20.4488 25.4876 19.9235 25.5636L19.4017 25.6217C19.2624 25.633 19.1185 25.6413 18.971 25.6479L18.5164 25.6627C18.4054 25.665 18.2571 25.6687 18.1256 25.6604C18.0156 25.6534 17.8686 25.6355 17.7075 25.5806L17.5434 25.5123C17.2895 25.3875 17.0741 25.1931 16.9248 24.954L16.8644 24.8481C16.7488 24.6244 16.717 24.4108 16.7049 24.2659C16.6939 24.1341 16.6946 23.9842 16.6946 23.8705V15.3165C16.6946 13.9634 15.5981 12.8669 14.2451 12.8669H10.2495C8.89649 12.867 7.79999 13.9635 7.79993 15.3165V23.8705C7.79993 23.9842 7.8006 24.1342 7.78967 24.2659C7.78061 24.3745 7.76006 24.522 7.70195 24.6829L7.63017 24.8481C7.50007 25.0994 7.30051 25.311 7.05823 25.4553L6.95227 25.5123C6.72811 25.6225 6.5164 25.651 6.37008 25.6604L5.97929 25.6627C5.82133 25.6595 5.66614 25.6545 5.51558 25.6479L5.07695 25.6217C4.4742 25.5724 3.8485 25.4697 3.23238 25.2058L2.9692 25.0816C1.9467 24.5606 1.11484 23.7294 0.593709 22.7073C0.32665 22.183 0.188185 21.647 0.111776 21.1213L0.0525311 20.5984C0.0257821 20.2709 0.0133871 19.909 0.00695813 19.5183L0.000122196 18.2616V11.1807C-0.000296402 10.3369 -0.00836944 9.52314 0.221151 8.74145L0.299764 8.49421C0.497921 7.92265 0.791352 7.38733 1.16565 6.91169L1.36161 6.67927C1.83601 6.15512 2.42197 5.74624 3.02502 5.31778L3.08883 5.27335C3.10758 5.26029 3.12209 5.24987 3.13554 5.24031L7.91842 1.83829L8.06881 1.73005L8.7581 1.2447C9.44456 0.773056 10.1342 0.361302 10.908 0.165762L11.2373 0.0928449Z" fill="white"/>
</svg>
