<svg width="22" height="22" viewBox="0 0 22 22" fill="none" xmlns="http://www.w3.org/2000/svg">
<path fill-rule="evenodd" clip-rule="evenodd" d="M11.0088 0C17.0838 0.000131941 22.0088 4.92495 22.0088 11C22.0088 17.0751 17.0838 21.9999 11.0088 22L11.0039 21.999L11 22C4.92487 22 0 17.0751 0 11C0 4.92487 4.92487 0 11 0H11.0088ZM11 15.1709C9.47869 15.1709 7.99991 15.5609 6.79297 16.2812C6.212 16.628 5.70924 17.0415 5.30028 17.5049C5.09581 17.7365 5.13726 18.0875 5.38152 18.2767C6.93714 19.4818 8.88878 20.2002 11.0088 20.2002C13.1237 20.2001 15.0704 19.4847 16.624 18.2847C16.8685 18.0959 16.9105 17.7452 16.7066 17.5132C16.2965 17.0465 15.7914 16.63 15.207 16.2812C14.0001 15.561 12.5213 15.1709 11 15.1709ZM11 6.0166C8.84681 6.0166 7.10083 7.76191 7.10059 9.91504C7.10059 12.0684 8.84666 13.8145 11 13.8145C13.1533 13.8144 14.8984 12.0684 14.8984 9.91504C14.8982 7.76193 13.1532 6.01664 11 6.0166Z" fill="white"/>
</svg>
